<svg xmlns="http://www.w3.org/2000/svg" id="Livello_1" data-name="Livello 1" viewBox="0 0 1024 1024" style="&#10;">
  <defs>
    <style>
      .cls-1 {
        fill: #fefefe;
      }

      .cls-2 {
        fill: #191919;
      }

      .cls-3 {
        fill: #aeadac;
      }

      .cls-4 {
        fill: #eaeae9;
      }

      .cls-5 {
        fill: #925128;
      }

      .cls-6 {
        fill: #d5d4d6;
      }

      .cls-7 {
        fill: #898988;
      }

      .cls-8 {
        fill: #d64140;
      }
    </style>
  </defs>
  <title>etata</title>
  <g>
    
    <path class="cls-2" d="M675.98367,581.96663c-1.70758,5.10569-5.62733,7.5425-10.52207,8.99738-9.95864,2.96015-20.17248,1.987-30.29936,1.97968-3.48923-.00256-4.82157.84134-5.516,4.44505a85.00049,85.00049,0,0,1-8.3944,23.9017c-4.9723,9.38684-11.86851,13.83714-22.67636,13.93252-137.96757,1.218-275.93629.688-413.90441.45359-53.65231-.09111-107.30463-.5184-160.95518-.99482-9.96995-.08848-19.88267-.668-28.3723-7.55385-5.15149-4.17838-9.10284-8.69654-10.55732-15.1912-1.1633-5.19442-2.46575-10.37036-3.309-15.61842-.43682-2.71844-1.49068-3.4561-4.14986-3.48332-7.6603-.07829-15.31537-.57344-22.97609-.7296-6.86653-.14-12.076-3.3241-16.32-8.40777a12.42533,12.42533,0,0,1,3.93384-19.45482,21.8751,21.8751,0,0,1,10.62525-2.2685c7.66166.13059,15.33014-.11607,22.99072.04125,2.81824.05785,3.76724-.80808,3.72972-3.6338a69.523,69.523,0,0,1,.72717-9.961c.35465-2.69153-.66324-3.36047-3.23013-3.49106-8.14874-.41442-16.284-1.09911-24.4226-1.70514a21.6277,21.6277,0,0,1-11.77984-5.02282c-7.67919-6.00806-6.62593-16.42468,2.09613-20.84641a22.35038,22.35038,0,0,1,10.635-2.24361c8.99569.12223,17.99572-.055,26.99065.09275,2.61285.043,3.72894-.6031,4.18968-3.37523,2.97407-17.8942,5.48269-35.86211,9.312-53.62425,1.16158-5.388.1184-11.286-.14017-16.94-1.8809-41.127-2.86522-82.2756-1.3346-123.42363C-6.17018,278.16806-1.06817,238.86,5.90653,199.79639c1.86154-10.42593,5.922-20.09842,11.07792-29.29351,8.04738-14.35175,19.063-18.84684,34.90134-13.86188,18.20448,5.72966,35.20273,14.17984,51.34734,24.27813a420.522,420.522,0,0,1,87.06009,72.19058c1.81311,1.97288,3.326,2.50623,5.98249,1.90462,59.83359-13.55014,120.10268-15.34565,180.75583-6.5126,12.53062,1.82483,25.07283,3.61918,37.34959,6.73927,3.3421.84937,4.54843-1.15292,6.185-2.86645,28.85248-30.2085,61.21884-55.89326,97.87147-76.05526a267.14365,267.14365,0,0,1,36.29619-16.62117,48.62407,48.62407,0,0,1,13.095-2.99656c8.96785-.7073,15.76025,2.63325,20.92911,10.02094,10.69764,15.28984,15.17174,32.64983,18.243,50.737,11.1306,65.55014,12.88987,131.53592,10.01673,197.77773-.55593,12.81718-.96546,25.64113-1.3587,38.46454a20.29265,20.29265,0,0,0,.56179,5.92573,442.91569,442.91569,0,0,1,10.47881,51.34817c.47617,3.14689,1.4066,4.15092,4.6103,4.076q12.73834-.29759,25.49011.06426c10.75348.29328,15.93839,4.39355,19.32144,14.76568a4.89588,4.89588,0,0,1,.00653,5.18868c-1.48441,5.39672-5.81053,7.38824-10.59475,8.79-9.44586,2.7678-19.17455,2.25971-28.79768,1.97125-5.03241-.15091-6.128,1.23061-5.49278,6.06414,1.33979,10.19327,1.09417,10.22287,11.63149,10.22787,3.66523.00177,7.33394.12754,10.99513.01154,10.93759-.34656,18.65457,4.0039,22.04427,14.83194A4.25287,4.25287,0,0,1,675.98367,581.96663Z" transform="translate(206 116)"/>
    
    
    <path class="cls-5" d="M86.82016,617.00015c-1.79154-1.1799-3.81317-.94252-5.79682-.94246-19.989.00037-39.97913-.10673-59.96634.08568-4.26479.04107-6.83381-1.50345-8.6649-5.18332-2.28695-4.5959-4.75868-9.10576-7.30415-13.56509-1.6132-2.82614-.28411-3.87685,2.259-4.4055q2.907-.60442,5.83382-1.11265c13.19015-2.31251,14.26809-14.77459,7.49812-23.59848a17.726,17.726,0,0,0-15.08973-7.18088c-2.89244.06084-3.95525-1.08439-3.62019-3.82272a3.4505,3.4505,0,0,0,.00164-.49943c-.22535-9.33893-.2254-9.33887,8.83867-10.89553,9.27311-1.59254,13.97773-5.73931,14.182-12.5001.27249-9.02-4.96368-16.41985-13.5705-18.18686-4.52807-.92964-5.59166-2.35174-4.63493-7.177a403.60674,403.60674,0,0,1,27.671-86.18745c10.29115-23.069,25.36372-42.80118,41.1598-62.2348a238.48632,238.48632,0,0,1,55.54027-49.91492,255.09727,255.09727,0,0,1,90.49705-36.74915A457.26646,457.26646,0,0,1,284.118,265.581a440.422,440.422,0,0,1,51.22249.65238c36.794,2.23916,72.816,9.18381,106.81558,23.97268a257.36549,257.36549,0,0,1,56.869,34.24911c27.6215,21.81206,49.36681,48.50814,66.92819,78.96651,19.17,33.24826,30.13318,69.34031,38.85377,106.32269.52621,2.23159.659,4.15836-2.78758,4.37451-10.20243.64-16.04658,6.97492-15.11157,16.293.72484,7.2239,8.79948,14.88669,17.00563,15.52689,2.31538.18057,5.75951-1.33923,6.64064,1.73638,1.13218,3.95185.84183,8.27632.09312,12.36414-.27027,1.476-2.2815,1.03026-3.54757.98535a29.33081,29.33081,0,0,0-12.17558,1.87472c-7.80955,3.11259-11.48546,11.85666-7.2618,19.04907,3.6396,6.19785,8.71979,10.86685,16.58066,10.96522,3.98505.04986,5.06439,1.54385,2.81675,5.09142a53.41886,53.41886,0,0,0-2.71228,5.322c-4.315,8.88015-10.15409,13.76567-21.2814,13.01264-16.91306-1.14463-33.96117-.28029-50.95173-.31458a17.17427,17.17427,0,0,0-6.83506.97717c-1.79966-1.00915-2.1099-2.9095-2.701-4.612q-9.578-27.58649-20.92723-54.49316a1.698,1.698,0,0,1,1.18643-1.4456c29.40487-8.81089,55.89382-45.71913,56.07922-79.66032.14114-25.839-7.79747-47.91911-25.2974-66.31589-14.51738-15.26138-32.75216-24.46261-53.66907-27.76257-22.6019-3.56579-44.09268-.09117-64.32765,10.81424-2.5209,1.35864-4.50272,3.40942-7.01374,4.71484-2.11552-.37066-2.727-2.29743-3.70672-3.7516-15.43866-22.91647-31.4593-45.41856-49.467-66.39584-11.79583-13.74114-23.287-27.77651-36.15327-40.57285-1.17954-1.17313-2.33344-2.37387-3.62489-3.42854-7.42931-6.06692-12.53693-6.02521-19.87572.28034-11.27227,9.68521-20.47711,21.32356-30.04433,32.55979q-29.11919,34.19905-55.27818,70.75725c-2.97648,4.1608-5.28234,8.79555-8.84925,12.539-12.09555-10.42991-26.833-14.466-42.0831-16.68048-18.8593-2.73855-37.28759-.42143-54.58828,7.77458-29.93062,14.17929-48.46777,37.34938-53.53682,70.43471-3.9493,25.77679,2.69988,49.06209,18.80129,69.28715,9.93063,12.4738,21.86721,22.89011,37.8358,27.36183a1.85816,1.85816,0,0,1,1.31055,1.36108c-5.69138,15.42363-11.74887,30.7107-17.38868,46.157C90.5732,609.72413,90.64244,614.3002,86.82016,617.00015Z" transform="translate(206 116)"/>
    <path class="cls-6" d="M201.91522,399.69925c1.182-4.82429,4.59462-8.34543,7.33884-12.20484a1015.91459,1015.91459,0,0,1,78.17-96.975,83.30539,83.30539,0,0,1,8.34531-7.86276c7.54514-6.25175,13.43405-6.048,20.72679.61534,9.85,9,18.31088,19.30089,27.15692,29.237,22.68923,25.485,43.07688,52.73592,62.03413,81.0777.91621,1.36974,1.65686,2.857,2.47922,4.2895.058,2.68157-2.317,3.439-3.87759,4.77488-10.97542,9.39471-20.4386,19.88925-26.79853,33.12493-15.06025,31.34206-9.54282,70.32133,13.7705,96.15567,16.9437,18.776,37.87373,29.23623,63.03059,31.90073,14.05969,1.4891,27.49512-.48142,40.78713-4.745,2.31336-.74211,4.54983-2.24489,7.19327-1.32178,3.41216,3.48008,4.13829,8.25679,5.81883,12.518,5.79216,14.68628,11.29561,29.48656,16.87144,44.2576a10.65,10.65,0,0,1,.31543,2.46159q-73.90695.08247-147.81752.15824-142.82841.03863-285.65685.00164c-1.66055-.00012-3.32111-.10545-4.98233-.16208C93.02628,599.24533,99.3066,581.518,106.497,564.12967c.62446-1.51016.946-3.19747,2.38476-4.25416,2.20746-1.387,4.2019-.038,6.18482.58748,33.87485,10.68439,64.98555,5.06175,92.53174-17.0744,18.48083-14.85123,29.56466-34.51866,32.11806-58.406,3.49961-32.73908-8.29137-59.2337-33.2993-80.20454C204.68528,403.32584,202.3246,402.354,201.91522,399.69925Z" transform="translate(206 116)"/>
    <path class="cls-6" d="M25.55011,384.85516q0-10.41465-.00136-20.8293c-.03416-26.30764-1.43322-52.6247.40009-78.91961,1.81036-25.96587,5.67631-51.60371,12.72658-76.70038a54.92205,54.92205,0,0,1,5.40927-11.75719c2.31046-4.13511,5.60078-5.24157,10.04471-4.50785,11.28719,1.86358,20.96841,7.41994,30.4946,13.23663,26.244,16.02454,48.76441,36.39417,69.04041,59.3918,2.51819,2.8562,2.332,3.73846-1.222,5.251-25.78559,10.97376-49.49874,25.372-69.9725,44.60236C63.80348,332.15543,48.69431,352.703,34.2841,373.76334c-2.53445,3.704-5.0116,7.44731-7.51517,11.17249Q26.15953,384.89551,25.55011,384.85516Z" transform="translate(206 116)"/>
    <path class="cls-6" d="M581.84681,379.09263c-17.40846-26.37421-36.79818-51.034-61.34553-71.27355-18.40754-15.17716-39.51106-25.82347-60.68652-36.36433-1.34168-.66782-2.6648-1.38338-4.04572-1.9589-1.658-.691-1.95252-1.47874-.67236-2.9052,25.41121-28.31511,52.663-54.27446,88.52875-69.20368a64.10061,64.10061,0,0,1,12.42761-3.65518c4.30988-.83939,7.33564.68365,9.72351,4.32956,4.57156,6.98008,6.66737,14.828,8.42608,22.80956,9.92391,45.03877,11.9302,90.67555,10.27718,136.58806-.2577,7.157-.42759,14.31725-.63813,21.476A1.36188,1.36188,0,0,1,581.84681,379.09263Z" transform="translate(206 116)"/>
    <path class="cls-7" d="M581.84681,379.09263l1.99494-.15769c-.0329.848.69152,2.18521-.56405,2.33618C582.31029,381.38747,581.88818,380.132,581.84681,379.09263Z" transform="translate(206 116)"/>
    <path class="cls-2" d="M201.91522,399.69925c24.9224,17.90634,39.34385,42.04,39.75067,72.82172.489,36.99477-16.77124,64.71927-48.97363,82.48775-26.90423,14.84519-55.16062,15.444-83.80851,4.86715-8.45666-1.54488-15.54918-6.045-22.14789-11.0836C68.0106,534.4944,55.64517,515.943,50.9873,492.6445c-4.57323-22.87516-1.11259-44.62491,10.90292-64.564,14.091-23.38318,34.73559-38.21556,61.50617-44.13434q39.79563-8.79853,75.0418,11.83927C200.23672,396.83563,200.34775,398.78914,201.91522,399.69925Z" transform="translate(206 116)"/>
    <path class="cls-2" d="M502.27181,557.76554c-54.53786,23.44872-120.69251-6.42589-132.79346-66.85742-7.11791-35.54649,5.26278-65.09718,32.82874-88.38358,1.90267-1.60731,3.90249-3.0996,5.85825-4.64692,6.10039-6.84909,14.66219-9.50016,22.77161-12.40749a92.85,92.85,0,0,1,36.13387-5.28523c23.15912,1.168,43.84377,8.69326,61.547,24.09383,15.26169,13.27657,25.48968,29.63558,29.37893,49.34305,6.07232,30.7694-.48209,58.47284-22.25114,81.91576-7.62416,8.21036-16.14031,15.13158-26.24181,20.05713C507.19365,556.72112,504.91507,557.813,502.27181,557.76554Z" transform="translate(206 116)"/>
    <path class="cls-2" d="M311.17915,512.62693c6.21725,5.82682,11.72284,12.08538,18.78985,16.59469,8.60366,5.49,15.87821,5.22036,23.99228-.75169,1.746-1.285,3.42412-2.65278,5.72057-2.842,3.0174-.24849,5.65278.31494,7.25747,3.21834a6.30716,6.30716,0,0,1-1.02166,7.83567c-3.85983,4.18911-8.12468,8.03143-13.75781,9.54434-2.9914.80338-4.1663,2.41533-5.03223,5.21554-3.6399,11.77171-7.51243,23.47142-16.35988,32.66163a43.055,43.055,0,0,1-13.11431,9.8076c-8.96175,4.0476-17.43762,3.56509-26.07005-1.79288-14.84557-9.21439-21.97571-23.10876-25.50021-39.42451-.79149-3.664-1.9204-6.115-6.10815-7.16385-4.66486-1.16831-8.641-4.22018-12.41918-7.24038-3.31263-2.64795-4.07736-6.09709-1.93831-9.76634,2.10606-3.61275,5.44435-4.00775,9.14046-2.64466.46646.17209.9084.40965,1.36694.6045,17.09826,7.26723,31.873,2.673,42.41879-13.10149.90184-1.34893,1.21722-2.199-.37753-3.12974-1.28913-.75242-2.39583-1.85928-3.737-2.47379-8.23684-3.7736-8.02481-11.03277-7.52789-18.30586.21666-3.17044,2.51577-4.60267,5.51431-4.63581,8.98711-.0991,17.97549-.09251,26.96336-.1143a4.93176,4.93176,0,0,1,5.026,3.34808c2.29829,5.90981-.72118,15.90732-5.89926,19.50621C316.18934,509.186,313.86121,510.77882,311.17915,512.62693Z" transform="translate(206 116)"/>
    <path class="cls-6" d="M147.045,542.12124c-36.06964.25777-64.75359-23.10711-71.51253-57.51062-4.73757-24.11455,7.9234-51.24943,30.87689-66.175,32.23812-20.963,76.918-12.39892,99.01876,18.97963,22.867,32.46642,10.87357,78.35148-25.23241,96.4977C169.48707,539.29485,158.20735,542.34618,147.045,542.12124Z" transform="translate(206 116)"/>
    <path class="cls-6" d="M462.10493,405.93755c35.3317-.17593,63.52634,21.84336,71.2493,54.64871,5.75011,24.42493-5.34961,51.3032-27.8219,67.37137-32.98662,23.58609-82.41311,14.1046-103.19411-19.79589-24.03262-39.20457-2.58144-88.88147,43.24554-100.13467A61.4288,61.4288,0,0,1,462.10493,405.93755Z" transform="translate(206 116)"/>
    <path class="cls-8" d="M304.51538,581.92348c-6.23873-.89076-11.49943-5.73991-16.00081-11.33826-5.226-6.49954-7.02634-14.5613-9.05585-22.45763-.44852-1.7451.34134-2.41728,1.75258-2.9477,9.00547-3.38482,15.72444-9.83506,21.94562-16.80718,2.04773-2.29486,3.03412-1.96039,4.87406.07909,6.722,7.45091,13.92,14.34119,23.77832,17.56735,1.30134.42577,1.94832.9452,1.53653,2.49021-3.42663,12.856-7.14867,25.48839-20.70443,31.73938A14.71754,14.71754,0,0,1,304.51538,581.92348Z" transform="translate(206 116)"/>
    <path class="cls-2" d="M88.69244,473.00941c.84049-19.82127,10.00392-34.788,26.8144-45.07411,23.70885-14.50711,55.88174-10.37737,74.87114,9.42339,20.769,21.65639,19.65676,54.69015-2.52179,74.8988-31.24791,28.47247-83.116,16.363-96.46163-22.53A50.67,50.67,0,0,1,88.69244,473.00941Z" transform="translate(206 116)"/>
    <path class="cls-2" d="M465.01834,528.24694c-17.65414-.28894-32.94274-6.25911-44.87379-19.52713-18.83807-20.94906-17.78058-51.90782,2.2137-71.769,20.77149-20.63326,55.59621-23.15892,78.83026-5.33973,17.33809,13.29726,25.24553,31.00179,20.76136,52.66757-4.53775,21.92477-19.14129,35.14825-40.14388,41.63895A52.05637,52.05637,0,0,1,465.01834,528.24694Z" transform="translate(206 116)"/>
  </g>
</svg>